<svg width="78" height="14" viewBox="0 0 78 14" fill="none" xmlns="http://www.w3.org/2000/svg">
<path d="M2.08 8.04004H1.04C0.465624 8.04004 0 8.50566 0 9.08004V11.16C0 11.7344 0.465624 12.2 1.04 12.2H2.08C2.65438 12.2 3.12 11.7344 3.12 11.16V9.08004C3.12 8.50566 2.65438 8.04004 2.08 8.04004Z" fill="white"/>
<path d="M7.27971 5.95996H6.23971C5.66533 5.95996 5.19971 6.42558 5.19971 6.99996V11.16C5.19971 11.7343 5.66533 12.2 6.23971 12.2H7.27971C7.85408 12.2 8.31971 11.7343 8.31971 11.16V6.99996C8.31971 6.42558 7.85408 5.95996 7.27971 5.95996Z" fill="white"/>
<path d="M12.4799 3.88013H11.4399C10.8655 3.88013 10.3999 4.34575 10.3999 4.92013V11.1601C10.3999 11.7345 10.8655 12.2001 11.4399 12.2001H12.4799C13.0543 12.2001 13.5199 11.7345 13.5199 11.1601V4.92013C13.5199 4.34575 13.0543 3.88013 12.4799 3.88013Z" fill="white"/>
<path d="M17.6796 1.80005H16.6396C16.0652 1.80005 15.5996 2.26567 15.5996 2.84005V11.16C15.5996 11.7344 16.0652 12.2 16.6396 12.2H17.6796C18.254 12.2 18.7196 11.7344 18.7196 11.16V2.84005C18.7196 2.26567 18.254 1.80005 17.6796 1.80005Z" fill="white"/>
<g clip-path="url(#clip0_293_990)">
<path d="M35.8706 13.0418C35.9219 13.0453 35.9734 13.0379 36.0216 13.02C36.0699 13.002 36.1138 12.9741 36.1504 12.9379C36.2294 12.8662 37.99 11.096 38.3893 10.7434C38.4398 10.6665 38.4708 10.5782 38.4789 10.4865C38.4661 10.3853 38.4164 10.2925 38.3395 10.2255C37.6241 9.68789 36.7535 9.39722 35.8586 9.39722C34.9638 9.39722 34.0931 9.68789 33.3777 10.2255C33.3205 10.3017 33.2845 10.3918 33.2736 10.4865C33.2669 10.5346 33.2731 10.5838 33.2914 10.6289C33.3096 10.674 33.3394 10.7135 33.3777 10.7434C33.4724 10.8474 35.545 12.8537 35.6438 12.9379C35.7426 13.0222 35.7447 13.0418 35.8706 13.0418Z" fill="white"/>
<path d="M30.6797 7.50672C30.6875 7.5987 30.7277 7.68494 30.7931 7.75009L31.9943 9.10214C32.0578 9.16219 32.1419 9.19558 32.2293 9.19558C32.3167 9.19558 32.4009 9.16219 32.4644 9.10214C33.3699 8.17979 34.6038 7.65368 35.8963 7.63888C37.1869 7.66257 38.4177 8.18731 39.3284 9.10214C39.3916 9.16069 39.4746 9.19316 39.5608 9.19316C39.647 9.19316 39.73 9.16069 39.7933 9.10214L41.0017 7.75009C41.0552 7.6798 41.086 7.59492 41.0901 7.50672C41.0952 7.46114 41.0899 7.415 41.0746 7.37177C41.0593 7.32854 41.0344 7.28936 41.0017 7.25713C40.3503 6.55588 39.5613 5.9966 38.684 5.6141C37.8066 5.23161 36.8598 5.03418 35.9027 5.03418C34.9455 5.03418 33.9986 5.23161 33.1212 5.6141C32.2439 5.9966 31.4549 6.55588 30.8035 7.25713C30.7182 7.37881 30.6797 7.3684 30.6797 7.50672Z" fill="white"/>
<path d="M27.6606 4.28908C27.5951 4.39308 27.5566 4.41801 27.5566 4.54489C27.5658 4.63718 27.602 4.72465 27.6606 4.79651C27.6606 4.79651 28.6663 5.88238 28.9232 6.07062C28.9927 6.12392 29.0779 6.15275 29.1655 6.15275C29.2531 6.15275 29.3382 6.12392 29.4077 6.07062C31.1501 4.39397 33.4741 3.45729 35.8921 3.45729C38.3102 3.45729 40.6343 4.39397 42.3766 6.07062C42.3766 6.07062 42.6491 6.26822 42.8446 6.07062C43.0401 5.87302 44.0925 4.79651 44.0925 4.79651C44.1516 4.72492 44.1879 4.6373 44.1966 4.54489C44.2014 4.49701 44.1943 4.44868 44.1762 4.4041C44.1581 4.35953 44.1293 4.32008 44.0925 4.28908C41.8907 2.15354 38.944 0.959229 35.8766 0.959229C32.8093 0.959229 29.8624 2.15354 27.6606 4.28908V4.28908Z" fill="white"/>
</g>
<g clip-path="url(#clip1_293_990)">
<path opacity="0.4" d="M56.0179 1.28001C55.3443 1.29664 54.7047 1.57965 54.2394 2.06701C53.7741 2.55437 53.5209 3.20633 53.5354 3.88001V10.12C53.5209 10.7935 53.7739 11.4453 54.239 11.9326C54.7041 12.42 55.3434 12.7031 56.0169 12.72H71.9008C72.5744 12.7034 73.214 12.4204 73.6793 11.933C74.1447 11.4456 74.3978 10.7937 74.3833 10.12V3.88001C74.3978 3.20633 74.1447 2.55437 73.6793 2.06701C73.214 1.57965 72.5744 1.29664 71.9008 1.28001H56.0179ZM56.0179 0.76001H71.9008C72.7094 0.779097 73.4774 1.11845 74.0359 1.70349C74.5944 2.28853 74.8978 3.07138 74.8794 3.88001V10.12C74.8978 10.9286 74.5944 11.7115 74.0359 12.2965C73.4774 12.8816 72.7094 13.2209 71.9008 13.24H56.0179C55.2093 13.2209 54.4414 12.8816 53.8829 12.2965C53.3243 11.7115 53.0209 10.9286 53.0394 10.12V3.88001C53.0209 3.07138 53.3243 2.28853 53.8829 1.70349C54.4414 1.11845 55.2093 0.779097 56.0179 0.76001V0.76001Z" fill="white"/>
<rect x="55.1196" y="2.84009" width="17.68" height="8.32" rx="1.04" fill="white"/>
<path opacity="0.4" d="M75.9199 4.91992C76.4716 4.91992 77.0006 5.13906 77.3907 5.52914C77.7808 5.91922 77.9999 6.44827 77.9999 6.99992C77.9999 7.55157 77.7808 8.08063 77.3907 8.4707C77.0006 8.86078 76.4716 9.07992 75.9199 9.07992V4.91992Z" fill="white"/>
</g>
<defs>
<clipPath id="clip0_293_990">
<rect width="16.64" height="12.0838" fill="white" transform="translate(27.5596 0.958008)"/>
</clipPath>
<clipPath id="clip1_293_990">
<rect width="24.96" height="12.48" fill="white" transform="translate(53.0396 0.76001)"/>
</clipPath>
</defs>
</svg>
